<?xml version="1.0" encoding="UTF-8" standalone="no"?>
<svg width="101px" height="114px" viewBox="0 0 101 114" version="1.1" xmlns="http://www.w3.org/2000/svg" xmlns:xlink="http://www.w3.org/1999/xlink" xmlns:sketch="http://www.bohemiancoding.com/sketch/ns">
    <!-- Generator: Sketch 3.1.1 (8761) - http://www.bohemiancoding.com/sketch -->
    <title>Imported Layers</title>
    <desc>Created with Sketch.</desc>
    <defs></defs>
    <g id="Page-1" stroke="none" stroke-width="1" fill="none" fill-rule="evenodd" sketch:type="MSPage">
        <g id="Icons" sketch:type="MSArtboardGroup" transform="translate(-661.000000, -43.000000)">
            <g id="Build" sketch:type="MSLayerGroup" transform="translate(696.500000, 70.000000)">
                <path id="Stroke-1" stroke="#FFFFFF" sketch:type="MSShapeGroup"></path>
                <path d="M1.60344828,47.22 L24.0517241,47.22 L24.0517241,55.7914286 L1.60344828,55.7914286 L1.60344828,47.22 Z M-0.534482759,57.9342857 L26.1896552,57.9342857 L26.1896552,45.0771429 L-0.534482759,45.0771429 L-0.534482759,57.9342857 Z" id="Fill-2" fill="#FFFFFF" sketch:type="MSShapeGroup"></path>
                <path d="M1.60344828,36.4425 L24.0517241,36.4425 L24.0517241,45.0139286 L1.60344828,45.0139286 L1.60344828,36.4425 Z M-0.534482759,47.1567857 L26.1896552,47.1567857 L26.1896552,34.2996429 L-0.534482759,34.2996429 L-0.534482759,47.1567857 Z" id="Fill-3" fill="#FFFFFF" sketch:type="MSShapeGroup"></path>
                <path d="M1.60344828,25.7196429 L24.0517241,25.7196429 L24.0517241,34.2910714 L1.60344828,34.2910714 L1.60344828,25.7196429 Z M-0.534482759,36.4339286 L26.1896552,36.4339286 L26.1896552,23.5767857 L-0.534482759,23.5767857 L-0.534482759,36.4339286 Z" id="Fill-4" fill="#FFFFFF" sketch:type="MSShapeGroup"></path>
                <path d="M3.74137931,21.4510714 L10.1551724,21.4510714 L10.1551724,24.6653571 L3.74137931,24.6653571 L3.74137931,21.4510714 Z" id="Fill-5" fill="#FFFFFF" sketch:type="MSShapeGroup"></path>
                <path d="M15.5,21.4510714 L21.9137931,21.4510714 L21.9137931,24.6653571 L15.5,24.6653571 L15.5,21.4510714 Z" id="Fill-6" fill="#FFFFFF" sketch:type="MSShapeGroup"></path>
                <path d="M5.10431034,3.40392857 L26.8705862,8.90892857 L24.7775517,17.2189286 L3.01234483,11.7139286 L5.10431034,3.40392857 M3.55431034,0.801428571 L0.416896552,13.2675 L26.3275517,19.8214286 L29.4660345,7.35535714 L3.55431034,0.801428571" id="Fill-7" fill="#FFFFFF" sketch:type="MSShapeGroup"></path>
                <path d="M13.6528276,4.47857143 L7.43465517,2.90678571 L8.21927586,-0.211071429 L14.4374483,1.36178571 L13.6528276,4.47857143" id="Fill-8" fill="#FFFFFF" sketch:type="MSShapeGroup"></path>
                <path d="M25.0554828,7.36285714 L18.8351724,5.78892857 L19.6208621,2.67321429 L25.8390345,4.24714286 L25.0554828,7.36285714" id="Fill-9" fill="#FFFFFF" sketch:type="MSShapeGroup"></path>
            </g>
        </g>
    </g>
</svg>