<?xml version="1.0" encoding="UTF-8" standalone="no"?>
<svg width="101px" height="114px" viewBox="0 0 101 114" version="1.1" xmlns="http://www.w3.org/2000/svg" xmlns:xlink="http://www.w3.org/1999/xlink" xmlns:sketch="http://www.bohemiancoding.com/sketch/ns">
    <!-- Generator: Sketch 3.1.1 (8761) - http://www.bohemiancoding.com/sketch -->
    <title>Imported Layers</title>
    <desc>Created with Sketch.</desc>
    <defs></defs>
    <g id="Page-1" stroke="none" stroke-width="1" fill="none" fill-rule="evenodd" sketch:type="MSPage">
        <g id="Icons" sketch:type="MSArtboardGroup" transform="translate(-462.000000, -43.000000)">
            <g id="Steps" sketch:type="MSLayerGroup" transform="translate(512.500000, 100.000000) scale(-1, 1) rotate(-270.000000) translate(-512.500000, -100.000000) translate(495.000000, 75.000000)">
                <path d="M31.5184211,3.93363636 L3.88684211,19.3172727 L31.5184211,31.3263636 L3.88684211,45.7518182" id="Stroke-1" stroke="#FFFFFF" stroke-width="2" sketch:type="MSShapeGroup"></path>
                <path d="M35.2072368,3.93363636 C35.2072368,6.07 33.4526316,7.80181818 31.2890789,7.80181818 C29.1246053,7.80181818 27.3690789,6.07 27.3690789,3.93363636 C27.3690789,1.79727273 29.1246053,0.0654545455 31.2890789,0.0654545455 C33.4526316,0.0654545455 35.2072368,1.79727273 35.2072368,3.93363636 L35.2072368,3.93363636 Z" id="Fill-2" fill="#FF3362" sketch:type="MSShapeGroup"></path>
                <path d="M35.2072368,3.93363636 C35.2072368,6.07 33.4526316,7.80181818 31.2890789,7.80181818 C29.1246053,7.80181818 27.3690789,6.07 27.3690789,3.93363636 C27.3690789,1.79727273 29.1246053,0.0654545455 31.2890789,0.0654545455 C33.4526316,0.0654545455 35.2072368,1.79727273 35.2072368,3.93363636 L35.2072368,3.93363636 Z" id="Stroke-3" stroke="#FFFFFF" stroke-width="2" sketch:type="MSShapeGroup"></path>
                <path d="M7.80592105,19.3309091 C7.80592105,21.4663636 6.05039474,23.1990909 3.88684211,23.1990909 C1.72236842,23.1990909 -0.0322368421,21.4663636 -0.0322368421,19.3309091 C-0.0322368421,17.1945455 1.72236842,15.4627273 3.88684211,15.4627273 C6.05039474,15.4627273 7.80592105,17.1945455 7.80592105,19.3309091 L7.80592105,19.3309091 Z" id="Fill-4" fill="#FF3362" sketch:type="MSShapeGroup"></path>
                <path d="M7.80592105,19.3309091 C7.80592105,21.4663636 6.05039474,23.1990909 3.88684211,23.1990909 C1.72236842,23.1990909 -0.0322368421,21.4663636 -0.0322368421,19.3309091 C-0.0322368421,17.1945455 1.72236842,15.4627273 3.88684211,15.4627273 C6.05039474,15.4627273 7.80592105,17.1945455 7.80592105,19.3309091 L7.80592105,19.3309091 Z" id="Stroke-5" stroke="#FFFFFF" stroke-width="2" sketch:type="MSShapeGroup"></path>
                <path d="M35.2072368,31.2763636 C35.2072368,33.4127273 33.4526316,35.1445455 31.2890789,35.1445455 C29.1246053,35.1445455 27.3690789,33.4127273 27.3690789,31.2763636 C27.3690789,29.1409091 29.1246053,27.4081818 31.2890789,27.4081818 C33.4526316,27.4081818 35.2072368,29.1409091 35.2072368,31.2763636 L35.2072368,31.2763636 Z" id="Fill-6" fill="#FF3362" sketch:type="MSShapeGroup"></path>
                <path d="M35.2072368,31.2763636 C35.2072368,33.4127273 33.4526316,35.1445455 31.2890789,35.1445455 C29.1246053,35.1445455 27.3690789,33.4127273 27.3690789,31.2763636 C27.3690789,29.1409091 29.1246053,27.4081818 31.2890789,27.4081818 C33.4526316,27.4081818 35.2072368,29.1409091 35.2072368,31.2763636 L35.2072368,31.2763636 Z" id="Stroke-7" stroke="#FFFFFF" stroke-width="2" sketch:type="MSShapeGroup"></path>
                <path d="M7.80592105,45.7518182 C7.80592105,47.8881818 6.05039474,49.62 3.88684211,49.62 C1.72236842,49.62 -0.0322368421,47.8881818 -0.0322368421,45.7518182 C-0.0322368421,43.6163636 1.72236842,41.8836364 3.88684211,41.8836364 C6.05039474,41.8836364 7.80592105,43.6163636 7.80592105,45.7518182 L7.80592105,45.7518182 Z" id="Fill-8" fill="#FF3362" sketch:type="MSShapeGroup"></path>
                <path d="M7.80592105,45.7518182 C7.80592105,47.8881818 6.05039474,49.62 3.88684211,49.62 C1.72236842,49.62 -0.0322368421,47.8881818 -0.0322368421,45.7518182 C-0.0322368421,43.6163636 1.72236842,41.8836364 3.88684211,41.8836364 C6.05039474,41.8836364 7.80592105,43.6163636 7.80592105,45.7518182 L7.80592105,45.7518182 Z" id="Stroke-9" stroke="#FFFFFF" stroke-width="2" sketch:type="MSShapeGroup"></path>
            </g>
        </g>
    </g>
</svg>