<?xml version="1.0" encoding="UTF-8" standalone="no"?>
<svg width="101px" height="114px" viewBox="0 0 101 114" version="1.1" xmlns="http://www.w3.org/2000/svg" xmlns:xlink="http://www.w3.org/1999/xlink" xmlns:sketch="http://www.bohemiancoding.com/sketch/ns">
    <!-- Generator: Sketch 3.1.1 (8761) - http://www.bohemiancoding.com/sketch -->
    <title>Imported Layers</title>
    <desc>Created with Sketch.</desc>
    <defs></defs>
    <g id="Page-1" stroke="none" stroke-width="1" fill="none" fill-rule="evenodd" sketch:type="MSPage">
        <g id="Icons" sketch:type="MSArtboardGroup" transform="translate(-801.000000, -43.000000)">
            <g id="Deploy" sketch:type="MSLayerGroup" transform="translate(829.500000, 78.000000)">
                <path d="M28.9939709,21.4711222 C28.9939709,25.5957586 25.649706,28.9413114 21.5250696,28.9413114 C17.3991454,28.9413114 14.052305,25.5957586 14.052305,21.4711222 C14.052305,17.3439104 17.3991454,13.9996454 21.5250696,13.9996454 C25.649706,13.9996454 28.9939709,17.3439104 28.9939709,21.4711222 L28.9939709,21.4711222 Z" id="Fill-1" fill="#FFFFFF" sketch:type="MSShapeGroup"></path>
                <path d="M25.3097518,3.37508865 C25.3097518,5.49024823 23.5973404,7.20460993 21.4851064,7.20460993 C19.370922,7.20460993 17.6575355,5.49024823 17.6575355,3.37508865 C17.6575355,1.26285461 19.370922,-0.450531915 21.4851064,-0.450531915 C23.5973404,-0.450531915 25.3097518,1.26285461 25.3097518,3.37508865 L25.3097518,3.37508865 Z M25.3097518,39.6068262 C25.3097518,41.7190603 23.5973404,43.4324468 21.4851064,43.4324468 C19.370922,43.4324468 17.6575355,41.7190603 17.6575355,39.6068262 C17.6575355,37.4916667 19.370922,35.777305 21.4851064,35.777305 C23.5973404,35.777305 25.3097518,37.4916667 25.3097518,39.6068262 L25.3097518,39.6068262 Z M39.6575355,25.316578 C37.5423759,25.316578 35.8289894,23.6031915 35.8289894,21.4909574 C35.8289894,19.3777482 37.5423759,17.6643617 39.6575355,17.6643617 C41.7697695,17.6643617 43.4841312,19.3777482 43.4841312,21.4909574 C43.4841312,23.6031915 41.7697695,25.316578 39.6575355,25.316578 L39.6575355,25.316578 Z M3.42774823,25.316578 C1.31551418,25.316578 -0.398847518,23.6031915 -0.398847518,21.4909574 C-0.398847518,19.3777482 1.31551418,17.6643617 3.42774823,17.6643617 C5.5429078,17.6643617 7.25531915,19.3777482 7.25531915,21.4909574 C7.25531915,23.6031915 5.5429078,25.316578 3.42774823,25.316578 L3.42774823,25.316578 Z M35.8085106,41.1680851 C34.3135638,39.6721631 34.3116135,37.2507979 35.8065603,35.7558511 C37.3005319,34.2609043 39.7257979,34.2609043 41.2197695,35.7539007 C42.7147163,37.2498227 42.7137411,39.6731383 41.2187943,41.1680851 C39.7257979,42.6630319 37.3024823,42.6610816 35.8085106,41.1680851 L35.8085106,41.1680851 Z M1.86648936,7.22606383 C0.371542553,5.73111702 0.371542553,3.30780142 1.86453901,1.81382979 C3.36046099,0.318882979 5.7837766,0.317907801 7.2787234,1.81382979 C8.77269504,3.30682624 8.77074468,5.73111702 7.2787234,7.22606383 C5.7837766,8.72101064 3.36046099,8.72101064 1.86648936,7.22606383 L1.86648936,7.22606383 Z M1.86551418,35.7558511 C3.36143617,34.2599291 5.7837766,34.2599291 7.2787234,35.7539007 C8.77171986,37.2498227 8.77171986,39.6731383 7.27969858,41.1690603 C5.78475177,42.6630319 3.36046099,42.6630319 1.86551418,41.1651596 C0.371542553,39.6731383 0.37251773,37.251773 1.86551418,35.7558511 L1.86551418,35.7558511 Z M35.8065603,1.81480496 C37.3005319,0.318882979 39.7238475,0.318882979 41.2187943,1.81187943 C42.7137411,3.30780142 42.7147163,5.7320922 41.2187943,7.22703901 C39.7257979,8.72101064 37.3005319,8.72101064 35.8065603,7.22606383 C34.3116135,5.7320922 34.3116135,3.30780142 35.8065603,1.81480496 L35.8065603,1.81480496 Z M21.483156,20.0837766 L21.483156,7.20460993 L21.483156,20.0837766 Z M21.3076241,20.5830674 L35.6992908,7.33235816 L21.3076241,20.5830674 Z M22.6865248,21.4909574 L35.8289894,21.4909574 L22.6865248,21.4909574 Z M21.543617,21.4909574 L35.8065603,35.7558511 L21.543617,21.4909574 Z M21.483156,23.4588652 L21.483156,35.777305 L21.483156,23.4588652 Z M21.3076241,22.3149823 L7.38404255,35.6466312 L21.3076241,22.3149823 Z M19.4947695,21.4909574 L7.25531915,21.4909574 L19.4947695,21.4909574 Z M21.3076241,21.4909574 L7.38501773,7.33430851 L21.3076241,21.4909574 Z" id="Stroke-3" stroke="#FFFFFF" stroke-width="2" sketch:type="MSShapeGroup"></path>
            </g>
        </g>
    </g>
</svg>