<?xml version="1.0" encoding="UTF-8" standalone="no"?>
<svg width="101px" height="114px" viewBox="0 0 101 114" version="1.1" xmlns="http://www.w3.org/2000/svg" xmlns:xlink="http://www.w3.org/1999/xlink" xmlns:sketch="http://www.bohemiancoding.com/sketch/ns">
    <!-- Generator: Sketch 3.1.1 (8761) - http://www.bohemiancoding.com/sketch -->
    <title>Imported Layers</title>
    <desc>Created with Sketch.</desc>
    <defs></defs>
    <g id="Page-1" stroke="none" stroke-width="1" fill="none" fill-rule="evenodd" sketch:type="MSPage">
        <g id="Icons" sketch:type="MSArtboardGroup" transform="translate(-198.000000, -43.000000)">
            <g id="wercker.yml" sketch:type="MSLayerGroup" transform="translate(225.500000, 78.000000)">
                <path d="M5,2 L5,43 L7,43 L7,10.062229 L7,2 L5,2 Z" id="Rectangle-25" fill="#FFFFFF" sketch:type="MSShapeGroup"></path>
                <path d="M22,2 L22,43 L24,43 L24,10.062229 L24,2 L22,2 Z" id="Rectangle-26" fill="#FFFFFF" sketch:type="MSShapeGroup"></path>
                <path d="M38,2 L38,43 L40,43 L40,10.062229 L40,2 L38,2 Z" id="Rectangle-27" fill="#FFFFFF" sketch:type="MSShapeGroup"></path>
                <path d="M9.5,20.5 C9.5,22.43302 7.93384254,24 6.00082256,24 C4.06780259,24 2.5,22.43302 2.5,20.5 C2.5,18.56698 4.06780259,17 6.00082256,17 C7.93384254,17 9.5,18.56698 9.5,20.5 L9.5,20.5 Z" id="Stroke-3" stroke="#FFFFFF" stroke-width="2" fill="#3DBDEE" sketch:type="MSShapeGroup"></path>
                <path d="M26.5,29.5 C26.5,31.43302 24.9338425,33 23.0008226,33 C21.0678026,33 19.5,31.43302 19.5,29.5 C19.5,27.56698 21.0678026,26 23.0008226,26 C24.9338425,26 26.5,27.56698 26.5,29.5 L26.5,29.5 Z" id="Stroke-5" stroke="#FFFFFF" stroke-width="2" fill="#3DBDEE" sketch:type="MSShapeGroup"></path>
                <path d="M42.5,15 C42.5,16.93302 40.9338425,18.5 39.0008226,18.5 C37.0678026,18.5 35.5,16.93302 35.5,15 C35.5,13.06698 37.0678026,11.5 39.0008226,11.5 C40.9338425,11.5 42.5,13.06698 42.5,15 L42.5,15 Z" id="Stroke-7" stroke="#FFFFFF" stroke-width="2" fill="#3DBDEE" sketch:type="MSShapeGroup"></path>
            </g>
        </g>
    </g>
</svg>