<?xml version="1.0" encoding="utf-8"?>
<!-- Generator: Adobe Illustrator 16.2.0, SVG Export Plug-In . SVG Version: 6.00 Build 0)  -->
<!DOCTYPE svg PUBLIC "-//W3C//DTD SVG 1.1//EN" "http://www.w3.org/Graphics/SVG/1.1/DTD/svg11.dtd" [
	<!ENTITY ns_extend "http://ns.adobe.com/Extensibility/1.0/">
	<!ENTITY ns_ai "http://ns.adobe.com/AdobeIllustrator/10.0/">
	<!ENTITY ns_graphs "http://ns.adobe.com/Graphs/1.0/">
	<!ENTITY ns_vars "http://ns.adobe.com/Variables/1.0/">
	<!ENTITY ns_imrep "http://ns.adobe.com/ImageReplacement/1.0/">
	<!ENTITY ns_sfw "http://ns.adobe.com/SaveForWeb/1.0/">
	<!ENTITY ns_custom "http://ns.adobe.com/GenericCustomNamespace/1.0/">
	<!ENTITY ns_adobe_xpath "http://ns.adobe.com/XPath/1.0/">
]>
<svg version="1.1" id="Layer_1" xmlns:x="&ns_extend;" xmlns:i="&ns_ai;" xmlns:graph="&ns_graphs;"
	 xmlns="http://www.w3.org/2000/svg" xmlns:xlink="http://www.w3.org/1999/xlink" x="0px" y="0px" width="20px" height="20px"
	 viewBox="0 0 20 20" enable-background="new 0 0 20 20" xml:space="preserve">
<metadata>
	<sfw  xmlns="&ns_sfw;">
		<slices></slices>
		<sliceSourceBounds  width="15.961" height="16" bottomLeftOrigin="true" y="-17.495" x="2"></sliceSourceBounds>
	</sfw>
</metadata>
<g>
	<path d="M17.961,9.479c0,4.406-3.57,8.016-7.977,8.016C5.57,17.495,2,13.886,2,9.479c0-4.414,3.57-7.984,7.984-7.984
		C14.391,1.495,17.961,5.065,17.961,9.479z M11.977,15.995c2.734-0.977,4.734-3.5,4.734-6.516c0-3.719-3.016-6.734-6.727-6.734
		c-3.719,0-6.734,3.016-6.734,6.734c0,3.047,2.031,5.586,4.812,6.516v-1.281c0-0.766,0.32-1.172,0.641-1.391
		c-1.734-0.18-3.594-0.805-3.594-3.805c0-0.844,0.297-1.531,0.789-2.062C5.82,7.253,5.562,6.472,5.977,5.417
		c0,0,0.648-0.211,2.117,0.789c0.609-0.172,1.273-0.258,1.922-0.258c0.656,0,1.312,0.086,1.93,0.258
		c1.469-1,2.109-0.789,2.109-0.789c0.422,1.055,0.156,1.836,0.078,2.039c0.492,0.531,0.789,1.219,0.789,2.062
		c0,3-1.859,3.625-3.594,3.805c0.32,0.219,0.648,0.625,0.648,1.391V15.995z"/>
</g>
</svg>
