<svg width="31px" height="30px" viewBox="0 0 31 30" version="1.1" xmlns="http://www.w3.org/2000/svg">
    <g stroke="none" stroke-width="1" fill="none" fill-rule="evenodd">
        <g class="icon-stroke" transform="translate(0.000000, 3.000000)" stroke="#9D9E9E" stroke-width="1.5">
            <path d="M25.9383399,19.0415816 C19.8075867,22.5032307 10.1372885,21.8420053 4.91853945,18.9648506 C-0.74831323,15.8405089 -0.265983082,10.1001039 4.91801289,7.1724819 C11.0772004,3.69486864 19.9771394,3.62586224 25.9383399,7.17145196 C30.9285613,10.1397568 31.5298943,15.8842816 25.9383399,19.0415816 L25.9383399,19.0415816 Z"></path>
            <path d="M25.9722803,9.02561114 C24.8181943,16.1395934 18.4887435,23.2536058 13.2162928,25.4021178 C7.49158862,27.7347573 3.55408562,23.5062625 4.52963981,17.4906906 C5.68901925,10.3438429 11.0151892,3.3415058 17.2281806,1.06136487 C22.429574,-0.847397587 27.0243987,2.53728368 25.9722803,9.02561114 L25.9722803,9.02561114 L25.9722803,9.02561114 Z"></path>
            <path d="M25.6438058,17.597212 C26.742851,24.1170993 22.3161415,27.5893937 17.1370997,25.5034686 C10.9841602,23.0248794 5.66822855,16.1204063 4.69886782,9.08804103 C3.88745049,3.20070604 7.67620089,-1.12015955 13.2622741,1.12958524 C19.3869122,3.59681715 24.6314508,11.5923715 25.6438058,17.597212 L25.6438058,17.597212 Z"></path>
        </g>
    </g>
</svg>
