<svg width="31px" height="28px" viewBox="0 0 31 28" version="1.1" xmlns="http://www.w3.org/2000/svg">
    <g stroke="none" stroke-width="1" fill="none" fill-rule="evenodd" transform="translate(0.000000, 6.000000)">
        <g class="icon-fill" fill="#9D9E9E">
            <path d="M10.4953368,6.38868816 C10.74353,5.85621144 11.208386,7.010275 11.4901829,7.03529339 C11.7644012,7.05963893 11.855494,5.9404367 12.1034227,6.47234603 C13.6138083,9.71274589 15.1241938,12.9531458 16.6345794,16.1935456 C16.8818135,16.7239647 17.8479424,15.626077 18.8033446,15.6371312 C19.7551816,15.6481441 20.6963103,16.7700601 20.9381502,16.2512137 C22.4440913,13.0203493 25.4559733,6.55862048 25.4559733,6.55862048 L24.0867963,5.95170949 C24.0867963,5.95170949 21.1702334,12.5229274 19.6807108,15.7185676 C19.4064844,16.3068963 19.1004084,15.4299621 18.7984793,15.3802404 C18.5487923,15.3391219 18.3260338,16.2780528 17.9119284,15.389626 L13.496642,5.91701592 C13.1517127,5.17700035 12.2341275,6.60555307 11.3745753,6.55536743 C10.3927644,6.49804362 9.46741083,5.04965306 9.22361944,5.57268612 L4.54438506,15.6115734 L5.91356202,16.2184843 L10.4953368,6.38868816 Z" ></path>
            <path d="M3.75996094,20.5301321 C5.00590238,20.5301321 6.0159375,19.5451585 6.0159375,18.3301321 C6.0159375,17.1151057 5.00590238,16.1301321 3.75996094,16.1301321 C2.51401949,16.1301321 1.50398437,17.1151057 1.50398437,18.3301321 C1.50398437,19.5451585 2.51401949,20.5301321 3.75996094,20.5301321 L3.75996094,20.5301321 L3.75996094,20.5301321 Z M3.75996094,21.9967988 L3.75996094,21.9967988 C1.68339186,21.9967988 0,20.3551762 0,18.3301321 C0,16.305088 1.68339186,14.6634654 3.75996094,14.6634654 C5.83653002,14.6634654 7.51992188,16.305088 7.51992188,18.3301321 C7.51992188,20.3551762 5.83653002,21.9967988 3.75996094,21.9967988 L3.75996094,21.9967988 L3.75996094,21.9967988 Z"></path>
            <path d="M18.7755859,20.5301321 C20.0215274,20.5301321 21.0315625,19.5451585 21.0315625,18.3301321 C21.0315625,17.1151057 20.0215274,16.1301321 18.7755859,16.1301321 C17.5296445,16.1301321 16.5196094,17.1151057 16.5196094,18.3301321 C16.5196094,19.5451585 17.5296445,20.5301321 18.7755859,20.5301321 L18.7755859,20.5301321 L18.7755859,20.5301321 Z M18.7755859,21.9967988 L18.7755859,21.9967988 C16.6990169,21.9967988 15.015625,20.3551762 15.015625,18.3301321 C15.015625,16.305088 16.6990169,14.6634654 18.7755859,14.6634654 C20.852155,14.6634654 22.5355469,16.305088 22.5355469,18.3301321 C22.5355469,20.3551762 20.852155,21.9967988 18.7755859,21.9967988 L18.7755859,21.9967988 L18.7755859,21.9967988 Z"></path>
            <path d="M26.3197266,5.86666667 C27.565668,5.86666667 28.5757031,4.88169311 28.5757031,3.66666667 C28.5757031,2.45164022 27.565668,1.46666667 26.3197266,1.46666667 C25.0737851,1.46666667 24.06375,2.45164022 24.06375,3.66666667 C24.06375,4.88169311 25.0737851,5.86666667 26.3197266,5.86666667 L26.3197266,5.86666667 L26.3197266,5.86666667 Z M26.3197266,7.33333333 L26.3197266,7.33333333 C24.2431574,7.33333333 22.5597656,5.69171074 22.5597656,3.66666667 C22.5597656,1.64162259 24.2431574,0 26.3197266,0 C28.3962957,0 30.0796875,1.64162259 30.0796875,3.66666667 C30.0796875,5.69171074 28.3962957,7.33333333 26.3197266,7.33333333 L26.3197266,7.33333333 L26.3197266,7.33333333 Z"></path>
            <path d="M11.5099609,5.86666667 C12.7559024,5.86666667 13.7659375,4.88169311 13.7659375,3.66666667 C13.7659375,2.45164022 12.7559024,1.46666667 11.5099609,1.46666667 C10.2640195,1.46666667 9.25398438,2.45164022 9.25398438,3.66666667 C9.25398438,4.88169311 10.2640195,5.86666667 11.5099609,5.86666667 L11.5099609,5.86666667 L11.5099609,5.86666667 Z M11.5099609,7.33333333 L11.5099609,7.33333333 C9.43339181,7.33333333 7.75,5.69171074 7.75,3.66666667 C7.75,1.64162259 9.43339181,0 11.5099609,0 C13.5865301,0 15.2699219,1.64162259 15.2699219,3.66666667 C15.2699219,5.69171074 13.5865301,7.33333333 11.5099609,7.33333333 L11.5099609,7.33333333 L11.5099609,7.33333333 Z"></path>
        </g>
    </g>
</svg>
