<svg width="22px" height="29.25px" viewBox="0 0 22 29.25" version="1.1" xmlns="http://www.w3.org/2000/svg">
    <g stroke="none" stroke-width="1" fill="none" fill-rule="evenodd">
        <g transform="translate(-1.000000, 4.750000)">
            <rect class="icon-fill" fill="#9D9E9E" x="6" y="6" width="12" height="1"></rect>
            <rect class="icon-fill" fill="#9D9E9E" x="6" y="9" width="5" height="1"></rect>
            <rect class="icon-fill" fill="#9D9E9E" x="12" y="9" width="4" height="1"></rect>
            <rect class="icon-fill" fill="#9D9E9E" x="8" y="12" width="8" height="1"></rect>
            <rect class="icon-fill" fill="#9D9E9E" x="8" y="18" width="6" height="1"></rect>
            <rect class="icon-fill" fill="#9D9E9E" x="6" y="15" width="3" height="1"></rect>
            <rect class="icon-fill" fill="#9D9E9E" x="10" y="15" width="6" height="1"></rect>
            <path class="icon-stroke" d="M7.99871826,23.75 L6.56114538,23.75 L6.15152168,23.75 L4.4986883,23.75 C2.56570822,23.75 0.99880236,22.1916962 0.998907387,20.2456057 L0.999810875,3.50439429 C0.999915326,1.56897077 2.56967996,0 4.4935108,0 L8,0" stroke="#979797" stroke-width="1.5" stroke-linecap="round" stroke-linejoin="round"></path>
            <path class="icon-stroke" d="M22.9998109,23.75 L19.4935668,23.75 L19.4935668,23.75 C17.5640187,23.75 15.999895,22.1916962 16,20.2456057 L16.0009035,3.50439429 C16.0010079,1.56897077 17.569835,2.13162821e-14 19.5020138,1.77635684e-14 C19.5020138,1.77635684e-14 20.6634331,1.0658141e-14 19.4946034,2.13162821e-14 C18.3257737,4.26325641e-14 21.8322629,2.13162821e-14 23.0010926,2.13162821e-14" stroke="#979797" stroke-width="1.5" stroke-linecap="round" stroke-linejoin="round" transform="translate(19.500546, 11.875000) scale(-1, 1) translate(-19.500546, -11.875000) "></path>
        </g>
    </g>
</svg>
