<?xml version="1.0" encoding="UTF-8" standalone="no"?>
<svg width="85px" height="70px" viewBox="0 0 85 70" version="1.1" xmlns="http://www.w3.org/2000/svg" xmlns:xlink="http://www.w3.org/1999/xlink" xmlns:sketch="http://www.bohemiancoding.com/sketch/ns">
    <!-- Generator: Sketch 3.4.4 (17249) - http://www.bohemiancoding.com/sketch -->
    <title>cli</title>
    <desc>Created with Sketch.</desc>
    <defs></defs>
    <g id="Page-1" stroke="none" stroke-width="1" fill="none" fill-rule="evenodd" sketch:type="MSPage">
        <g id="cli" sketch:type="MSLayerGroup">
            <g id="desktop" transform="translate(0.500000, 0.500000)" stroke="#B0B8C6" sketch:type="MSShapeGroup">
                <path d="M0,2.25586771 C0,1.00998637 1.01676899,0 2.26853107,0 L81.7314688,0 C82.9843441,0 84,1.00669861 84,2.25586771 L84,55.7441323 C84,56.9900139 82.9831108,58 81.7334155,58 L61.5999998,58 L2.27236325,58 C1.01737168,58 0,56.9933013 0,55.7441323 L0,2.25586771 L0,2.25586771 Z" id="Rectangle-84"></path>
                <path d="M1,48.5 L84,48.5" id="Line"></path>
                <path d="M33.5855977,58 L32.6730265,64.0394794 C32.6730265,64.0394794 32.5749625,64.46884 28.8222265,66.23442 C25.0694905,68 28.1699404,68.5308555 28.1699404,68.5308555 L36.1920827,68.5308555 L46.8936769,68.5308555" id="Path-50"></path>
                <path d="M53.039615,58 L52.1652953,64.0394794 C52.1652953,64.0394794 52.0713417,64.46884 48.4759061,66.23442 C44.8804705,68 47.9054369,68.5218679 47.9054369,68.5218679 L57.014725,68.5218679" id="Path-50" transform="translate(51.865030, 63.260934) scale(-1, 1) translate(-51.865030, -63.260934) "></path>
            </g>
            <g transform="translate(5.500000, 5.500000)" sketch:type="MSShapeGroup">
                <rect id="Rectangle-68" stroke="#B0B8C6" fill-opacity="0.1" fill="#F9FBFF" x="1" y="0" width="62" height="38" rx="2"></rect>
                <path d="M1,7.5 L61,7.5" id="Line" stroke="#B0B8C6"></path>
                <path d="M5.87703293,13.5 L4.7580902,11.9845815 L5.3043457,11.5 L7.42184144,13.4749915 L5.3043457,15.5 L4.7580902,15.0154185 L5.87703293,13.5 Z" id="›" fill="#B0B8C6"></path>
                <rect id="Rectangle-178" fill="#B0B8C6" x="10" y="13" width="13" height="1"></rect>
                <circle id="Oval-28" fill="#B0B8C6" cx="5" cy="4" r="1"></circle>
                <circle id="Oval-28" fill="#B0B8C6" cx="8" cy="4" r="1"></circle>
                <circle id="Oval-28" fill="#B0B8C6" cx="11" cy="4" r="1"></circle>
            </g>
        </g>
    </g>
</svg>