<?xml version="1.0" encoding="UTF-8" standalone="no"?>
<svg width="64px" height="75px" viewBox="0 0 64 75" version="1.1" xmlns="http://www.w3.org/2000/svg" xmlns:xlink="http://www.w3.org/1999/xlink" xmlns:sketch="http://www.bohemiancoding.com/sketch/ns">
    <!-- Generator: Sketch 3.4.4 (17249) - http://www.bohemiancoding.com/sketch -->
    <title>usp-stopwatch</title>
    <desc>Created with Sketch.</desc>
    <defs></defs>
    <g id="Page-1" stroke="none" stroke-width="1" fill="none" fill-rule="evenodd" sketch:type="MSPage">
        <g id="usp-stopwatch" sketch:type="MSLayerGroup" transform="translate(1.000000, 0.000000)">
            <g id="Page-1" sketch:type="MSShapeGroup">
                <g id="usp-stopwatch">
                    <circle id="Oval-46" stroke="#B0B8C6" cx="31" cy="43" r="31"></circle>
                    <circle id="Oval-46" stroke="#B0B8C6" cx="31" cy="43" r="27"></circle>
                    <ellipse id="Oval-43" stroke="#B0B8C6" cx="31.2091364" cy="6.2770378" rx="5.7027027" ry="5.7770378"></ellipse>
                    <path d="M11.6589912,42 L8.0901864,42" id="Line" stroke="#B0B8C6"></path>
                    <path d="M54.5233004,42 L50.9544956,42" id="Line-Copy" stroke="#B0B8C6"></path>
                    <path d="M31,23.137931 L31,19" id="Line" stroke="#B0B8C6"></path>
                    <path d="M31,66.262931 L31,62.4482759" id="Line-Copy" stroke="#B0B8C6"></path>
                    <path d="M45.6679503,27.5948346 L47.0162602,26.2415785" id="Line" stroke="#B0B8C6"></path>
                    <path d="M14.3346169,59.3963525 L15.6829269,58.0430964" id="Line-Copy" stroke="#B0B8C6"></path>
                    <path d="M50.4054974,34.753621 L52.17345,34.0367015" id="Line" stroke="#B0B8C6"></path>
                    <path d="M9.17742724,51.6012296 L10.9453798,50.8843101" id="Line-Copy" stroke="#B0B8C6"></path>
                    <path d="M39.3578317,23.1501743 L40.1333964,21.4018373" id="Line" stroke="#B0B8C6"></path>
                    <path d="M21.2174808,64.2360937 L21.9930455,62.4877567" id="Line-Copy" stroke="#B0B8C6"></path>
                    <path d="M15.6829269,27.5948346 L14.3346169,26.2415785" id="Line" stroke="#B0B8C6"></path>
                    <path d="M47.0162602,59.3963525 L45.6679503,58.0430964" id="Line-Copy" stroke="#B0B8C6"></path>
                    <path d="M10.9453798,34.753621 L9.17742724,34.0367015" id="Line" stroke="#B0B8C6"></path>
                    <path d="M52.17345,51.6012296 L50.4054974,50.8843101" id="Line-Copy" stroke="#B0B8C6"></path>
                    <path d="M22.7869742,22.8565373 L22.072675,21.0820992" id="Line" stroke="#B0B8C6"></path>
                    <path d="M39.2782022,64.5558318 L38.563903,62.7813938" id="Line-Copy" stroke="#B0B8C6"></path>
                    <path d="M31,44.0583359 L50.7120916,30.7627515" id="Line" stroke="#B0B8C6"></path>
                    <circle id="Oval-45" stroke="#B0B8C6" fill="#B0B8C6" cx="31" cy="44" r="2"></circle>
                    <g id="Rectangle-21-+-Rectangle-20" transform="translate(52.933462, 15.563691) rotate(40.000000) translate(-52.933462, -15.563691) translate(45.933462, 11.563691)">
                        <rect id="Rectangle-21" fill="#B0B8C6" x="3" y="5" width="8" height="3"></rect>
                        <rect id="Rectangle-20" stroke="#B0B8C6" x="-1.63424829e-13" y="1.20792265e-13" width="14" height="5" rx="2"></rect>
                    </g>
                </g>
            </g>
        </g>
    </g>
</svg>