<?xml version="1.0" encoding="UTF-8" standalone="no"?>
<svg width="24px" height="32px" viewBox="0 0 24 32" version="1.1" xmlns="http://www.w3.org/2000/svg" xmlns:xlink="http://www.w3.org/1999/xlink" xmlns:sketch="http://www.bohemiancoding.com/sketch/ns">
    <!-- Generator: Sketch 3.1.1 (8761) - http://www.bohemiancoding.com/sketch -->
    <title>wercker_logo_white 2</title>
    <desc>Created with Sketch.</desc>
    <defs></defs>
    <g id="Page-1" stroke="none" stroke-width="1" fill="none" fill-rule="evenodd" sketch:type="MSPage">
        <g id="Devcenter-docs" class="logo-group" sketch:type="MSArtboardGroup" transform="translate(-285.000000, -161.000000)" fill="#424E61">
            <g id="wercker_logo_white-2" sketch:type="MSLayerGroup" transform="translate(285.000000, 161.000000)">
                <path d="M0,7.09869525 L0,16.6277464 L2.22231629,16.6277464 L2.22231629,8.37350924 L11.9994612,2.58390179 L21.7781455,8.37350924 L21.7781455,18.8412088 C21.7781455,20.4397497 21.204287,21.7344976 20.2134267,23.0738975 C17.7823786,26.366343 13.3837717,28.8332053 12.0013084,29.5186132 C10.6222316,28.829378 6.57982336,26.6422284 4.0002309,23.5341318 L16.8880337,23.5341318 C17.8217852,22.6009054 18.11441,22.3221495 18.8886879,21.2323223 L0.308941525,21.2323223 C2.11548748,27.6464195 11.9974601,32.0519751 11.9974601,32.0519751 C11.9974601,32.0519751 21.892517,27.6853306 23.6905967,21.2323223 C23.8883993,20.5185285 24,19.6103391 24,18.8412088 L24,7.09869525 L11.9994612,0.0519751244 L0,7.09869525 Z" id="Fill-8" sketch:type="MSShapeGroup"></path>
                <path d="M6.19539365,10.3199154 L17.6277556,10.3199154 L17.6277556,12.2436119 L6.19539365,12.2436119 L6.19539365,10.3199154 Z" id="Fill-9" sketch:type="MSShapeGroup"></path>
                <path d="M5.23987074,13.6864229 L18.5774736,13.6864229 L18.5774736,15.6099652 L5.23987074,15.6099652 L5.23987074,13.6864229 Z" id="Fill-10" sketch:type="MSShapeGroup"></path>
                <path d="M5,17 L18.3376028,17 L18.3376028,18.9238507 L5,18.9238507 L5,17 Z" id="Fill-11" sketch:type="MSShapeGroup"></path>
                <path d="M9.28881316,6.95340796 L14.5286839,6.95340796 L14.5286839,8.87710448 L9.28881316,8.87710448 L9.28881316,6.95340796 Z" id="Fill-12" sketch:type="MSShapeGroup"></path>
            </g>
        </g>
    </g>
</svg>
