<?xml version="1.0" encoding="UTF-8" standalone="no"?>
<svg xmlns="http://www.w3.org/2000/svg" width="120px" height="32px" viewBox="0 0 120 32" version="1.1"><g class="logo-group" fill="#4C5D79"><path d="M34.7652027 23.4 L28.3989865 9.9 L30.7441216 9.9 L34.7558784 18.6 L39.2575 9.3 L43.4579054 18.6 L47.7711486 9.9 L50.1161486 9.9 L43.4483108 23.4 L39.2575 14.1 L34.7652027 23.4" fill="#4C5D79"/><path d="M59.7872297 14.8 C59.2316892 12.7 57.8 11.5 56.1 11.5 C54.3252027 11.5 52.9 12.7 52.4 14.8 L59.7872297 14.8 L59.7872297 14.8 Z M52.2719595 16.6 C52.2719595 19.2 53.9 21.1 56.4 21.1 C58.0076351 21.1 59 20.6 60.2 19.5 L61.6802027 20.7 C60.2957432 22.2 58.7 23.1 56.4 23.1 C52.6393919 23.1 49.9 20.3 49.9 16.3 C49.8893919 12.4 52.6 9.6 56.1 9.6 C59.5896622 9.6 62.1 12.3 62.2 16.6 L52.2719595 16.6 L52.2719595 16.6 Z" fill="#4C5D79"/><path d="M64.1856081 9.9 L66.4834459 9.9 L66.4834459 11.9 C67.7265541 10.3 69 9.6 70.4 9.6 C71.1170946 9.6 71.7 9.8 72.3 10.2 L71.2299324 12.1 C70.7211486 11.8 70.2 11.7 69.7 11.7 C67.9619595 11.7 66.5 13.4 66.5 15.7 L66.4834459 22.8 L64.1856081 22.8 L64.1856081 9.9" fill="#4C5D79"/><path d="M82.2392568 12.8 C81.4197973 12.1 80.3 11.7 79.2 11.7 C76.7296622 11.7 74.7 13.8 74.7 16.3 C74.7335811 18.9 76.7 21 79.2 21 C80.5346622 21 81.8 20.4 82.6 19.4 L84.3016892 20.7 C83.0677703 22.1 81.2 23.1 79.2 23.1 C75.4491216 23.1 72.4 20.1 72.4 16.3 C72.4256081 12.6 75.4 9.6 79.2 9.6 C80.9868243 9.6 82.6 10.3 83.8 11.5 L82.2392568 12.8" fill="#4C5D79"/><path d="M86.1226351 3.6 L88.4106081 3.6 L88.4106081 15.1 L93.7410135 9.9 L96.745473 9.9 L90.4914189 16 L97.0657432 22.8 L94.0989865 22.8 L88.4106081 16.9 L88.4106081 22.8 L86.1226351 22.8 L86.1226351 3.6" fill="#4C5D79"/><path d="M106.853041 14.8 C106.29723 12.7 104.9 11.5 103.1 11.5 C101.390878 11.5 99.9 12.7 99.5 14.8 L106.853041 14.8 L106.853041 14.8 Z M99.3381757 16.6 C99.3381757 19.2 100.9 21.1 103.5 21.1 C105.072635 21.1 106.1 20.6 107.3 19.5 L108.746014 20.7 C107.361149 22.2 105.8 23.1 103.5 23.1 C99.7053378 23.1 97 20.3 97 16.3 C96.9553378 12.4 99.7 9.6 103.1 9.6 C106.655203 9.6 109.2 12.3 109.3 16.6 L99.3381757 16.6 L99.3381757 16.6 Z" fill="#4C5D79"/><path d="M111.520608 9.9 L113.818446 9.9 L113.818446 11.9 C115.062095 10.3 116.3 9.6 117.7 9.6 C118.452095 9.6 119 9.8 119.6 10.2 L118.565338 12.1 C118.056689 11.8 117.5 11.7 117.1 11.7 C115.296824 11.7 113.8 13.4 113.8 15.7 L113.818446 22.8 L111.520608 22.8 L111.520608 9.9" fill="#4C5D79"/><path d="M0 7.1 L0 16.6 L2.22231629 16.6 L2.22231629 8.4 L11.9994612 2.6 L21.7781455 8.4 L21.7781455 18.8 C21.7781455 20.4 21.2 21.7 20.2 23.1 C17.7823786 26.4 13.4 28.8 12 29.5 C10.6222316 28.8 6.6 26.6 4 23.5 L16.8880337 23.5 C17.8217852 22.6 18.1 22.3 18.9 21.2 L0.308941525 21.2 C2.11548748 27.6 12 32.1 12 32.1 C11.9974601 32.1 21.9 27.7 23.7 21.2 C23.8883993 20.5 24 19.6 24 18.8 L24 7.1 L11.9994612 0.1 L0 7.1 L0 7.1 Z" fill="#4C5D79"/><path d="M6.19539365 10.3 L17.6277556 10.3 L17.6277556 12.2 L6.19539365 12.2 L6.19539365 10.3 L6.19539365 10.3 Z" fill="#4C5D79"/><path d="M5.23987074 13.7 L18.5774736 13.7 L18.5774736 15.6 L5.23987074 15.6 L5.23987074 13.7 L5.23987074 13.7 Z" fill="#4C5D79"/><path d="M5 17 L18.3376028 17 L18.3376028 18.9 L5 18.9 L5 17 L5 17 Z" fill="#4C5D79"/><path d="M9.28881316 7 L14.5286839 7 L14.5286839 8.9 L9.28881316 8.9 L9.28881316 7 L9.28881316 7 Z" fill="#4C5D79"/></g></svg>
