<?xml version="1.0" encoding="UTF-8" standalone="no"?>
<svg width="19px" height="18px" viewBox="0 0 19 18" version="1.1" xmlns="http://www.w3.org/2000/svg" xmlns:xlink="http://www.w3.org/1999/xlink" xmlns:sketch="http://www.bohemiancoding.com/sketch/ns">
    <!-- Generator: Sketch 3.1.1 (8761) - http://www.bohemiancoding.com/sketch -->
    <title>Fill 1</title>
    <desc>Created with Sketch.</desc>
    <defs></defs>
    <g id="Page-1" stroke="none" stroke-width="1" fill="none" fill-rule="evenodd" sketch:type="MSPage">
        <g id="Devcenter-docs" sketch:type="MSArtboardGroup" transform="translate(-1057.000000, -3960.000000)" fill="#FFFFFF">
            <path d="M1067.31892,3970.58005 C1066.93372,3970.41546 1066.55126,3970.32457 1066.17025,3970.30802 C1065.90488,3970.29975 1065.45593,3970.27498 1064.82268,3970.23434 C1064.18871,3970.19302 1063.69054,3970.16826 1063.32612,3970.16065 C1062.98657,3970.15243 1062.65751,3970.14 1062.33885,3970.12284 C1062.02013,3970.10696 1061.74018,3970.06565 1061.50045,3969.99957 C1061.25173,3969.94171 1061.04045,3969.83288 1060.86653,3969.67174 C1060.69262,3969.51199 1060.60603,3969.27922 1060.60603,3968.97415 C1060.60603,3968.67808 1060.70927,3968.4432 1060.91642,3968.27107 C1061.12358,3968.09888 1061.32174,3967.97911 1061.51224,3967.91298 L1063.015,3967.91298 C1064.17413,3967.91298 1065.19057,3967.5425 1066.06421,3966.80222 C1066.93786,3966.06126 1067.3744,3965.1564 1067.3744,3964.08628 C1067.3744,3963.67516 1067.30021,3963.2551 1067.15127,3962.82677 C1067.00233,3962.39915 1066.77433,3962.00802 1066.46813,3961.65404 L1066.46813,3961.58041 L1069.34968,3961.58041 L1069.34968,3960.39524 L1065.07688,3960.39524 C1064.69587,3960.28024 1064.321,3960.18524 1063.95245,3960.11155 C1063.58384,3960.03781 1063.21316,3960 1062.84114,3960 C1061.49146,3960 1060.38362,3960.37048 1059.51891,3961.11137 C1058.65359,3961.85238 1058.22057,3962.79856 1058.22057,3963.95063 C1058.22057,3964.71635 1058.43951,3965.38911 1058.87874,3965.96898 C1059.31735,3966.54951 1059.93395,3967.02466 1060.72932,3967.39513 L1060.72932,3967.58037 C1060.10021,3967.84346 1059.63048,3968.15879 1059.31941,3968.5245 C1059.00902,3968.89086 1058.85382,3969.29166 1058.85382,3969.72821 C1058.85382,3970.07392 1058.9203,3970.36382 1059.05265,3970.59865 C1059.185,3970.83342 1059.35891,3971.03726 1059.57433,3971.21011 C1059.7649,3971.35815 1059.99216,3971.48769 1060.25753,3971.59852 C1060.52217,3971.70941 1060.77927,3971.80236 1061.02726,3971.87605 L1061.02726,3972.0489 C1060.00049,3972.09088 1059.15589,3972.35324 1058.49359,3972.83877 C1057.83118,3973.32424 1057.5,3973.98668 1057.5,3974.8268 C1057.5,3975.86388 1057.96006,3976.65097 1058.87874,3977.19086 C1059.79747,3977.73075 1061.18458,3978 1063.0393,3978 C1064.17346,3978 1065.1261,3977.89256 1065.8965,3977.67844 C1066.66696,3977.46422 1067.32864,3977.16399 1067.88362,3976.77696 C1068.40536,3976.39827 1068.79403,3975.952 1069.05174,3975.4376 C1069.30812,3974.92325 1069.43695,3974.37437 1069.43695,3973.78978 C1069.43695,3973.20508 1069.3413,3972.7155 1069.15152,3972.32021 C1068.96102,3971.92563 1068.69978,3971.57165 1068.3686,3971.25836 C1068.05402,3970.97118 1067.70418,3970.74463 1067.31892,3970.58005 L1067.31892,3970.58005 Z M1064.43743,3966.2038 C1064.05222,3966.77606 1063.50345,3967.0618 1062.79193,3967.0618 C1062.15454,3967.0618 1061.63487,3966.77401 1061.23307,3966.19758 C1060.83117,3965.62194 1060.63094,3964.87682 1060.63094,3963.96301 C1060.63094,3963.56016 1060.66625,3963.16698 1060.73625,3962.78407 C1060.80625,3962.40121 1060.92408,3962.0741 1061.09028,3961.80279 C1061.26419,3961.50672 1061.49006,3961.27806 1061.76722,3961.11765 C1062.04432,3960.95717 1062.37762,3960.8766 1062.76701,3960.8766 C1063.47853,3960.8766 1064.03144,3961.16307 1064.42497,3961.73461 C1064.81782,3962.30687 1065.01526,3963.07397 1065.01526,3964.0367 C1065.01526,3964.90919 1064.82268,3965.6316 1064.43743,3966.2038 L1064.43743,3966.2038 Z M1066.3503,3976.36384 C1065.65057,3976.82933 1064.69168,3977.06143 1063.47506,3977.06143 C1062.77114,3977.06143 1062.17532,3976.99324 1061.68615,3976.85826 C1061.19771,3976.7226 1060.80832,3976.54764 1060.51876,3976.3328 C1060.21244,3976.11108 1059.99702,3975.86799 1059.873,3975.60423 C1059.74897,3975.3412 1059.68663,3975.06573 1059.68663,3974.77722 C1059.68663,3974.13544 1059.87506,3973.61143 1060.25194,3973.20375 C1060.6282,3972.79607 1061.26419,3972.50544 1062.15868,3972.33259 C1063.11065,3972.33259 1063.94759,3972.35324 1064.66743,3972.39461 C1065.388,3972.43653 1065.86393,3972.47313 1066.09611,3972.50544 C1066.53461,3972.61217 1066.86171,3972.81395 1067.07786,3973.11074 C1067.29328,3973.40753 1067.40071,3973.78495 1067.40071,3974.24627 C1067.39932,3975.19245 1067.05015,3975.89903 1066.3503,3976.36384 L1066.3503,3976.36384 Z M1072.13486,3964.02704 L1072.13486,3966.44068 L1073.0827,3966.44068 L1073.0827,3964.02704 L1075.5,3964.02704 L1075.5,3963.10085 L1073.0827,3963.10085 L1073.0827,3960.6817 L1072.13486,3960.6817 L1072.13486,3963.10085 L1069.71756,3963.10085 L1069.71756,3964.02704 L1072.13486,3964.02704" id="Fill-1" sketch:type="MSShapeGroup"></path>
        </g>
    </g>
</svg>
