<?xml version="1.0" encoding="UTF-8" standalone="no"?>
<svg width="23px" height="16px" viewBox="0 0 23 16" version="1.1" xmlns="http://www.w3.org/2000/svg" xmlns:xlink="http://www.w3.org/1999/xlink" xmlns:sketch="http://www.bohemiancoding.com/sketch/ns">
    <!-- Generator: Sketch 3.1.1 (8761) - http://www.bohemiancoding.com/sketch -->
    <title>Imported Layers</title>
    <desc>Created with Sketch.</desc>
    <defs></defs>
    <g id="Page-1" stroke="none" stroke-width="1" fill="none" fill-rule="evenodd" sketch:type="MSPage">
        <g id="Devcenter-docs" sketch:type="MSArtboardGroup" transform="translate(-1099.000000, -3977.000000)" fill="#FBFBFB">
            <path d="M1119.39381,3983.786 C1120.68325,3983.68354 1121.56012,3983.11723 1121.89937,3982.35015 C1121.43362,3982.62569 1119.9875,3982.92892 1119.18681,3982.63954 C1119.148,3982.46092 1119.10487,3982.28785 1119.06175,3982.13277 C1118.45081,3979.97831 1116.36931,3978.24477 1114.18431,3978.45523 C1114.35969,3978.38738 1114.53938,3978.32092 1114.71906,3978.26415 C1114.962,3978.18246 1116.37075,3977.96092 1116.14937,3977.47908 C1115.96106,3977.06092 1114.23894,3977.79892 1113.91406,3977.89585 C1114.341,3977.74215 1115.05112,3977.47631 1115.12731,3977 C1114.46894,3977.08723 1113.82494,3977.38492 1113.32756,3977.82246 C1113.50725,3977.63415 1113.64381,3977.40569 1113.67256,3977.16338 C1111.92169,3978.23923 1110.89963,3980.41031 1110.07306,3982.51769 C1109.42331,3981.90846 1108.84831,3981.43354 1108.33225,3981.16769 C1106.88181,3980.41862 1105.14819,3979.64046 1102.42988,3978.66708 C1102.3465,3979.53246 1102.87262,3980.68723 1104.39638,3981.45154 C1104.06719,3981.40862 1103.46487,3981.50277 1102.98187,3981.61354 C1103.17737,3982.60908 1103.81994,3983.426 1105.55787,3983.82062 C1104.76437,3983.87185 1104.35469,3984.04492 1103.98094,3984.42154 C1104.34319,3985.11108 1105.22581,3985.92523 1106.81281,3985.75769 C1105.049,3986.49015 1106.09406,3987.84708 1107.53012,3987.64492 C1105.08206,3990.08185 1101.21806,3989.90323 1099,3987.86369 C1104.78881,3995.46523 1117.37844,3992.36092 1119.25437,3985.03769 C1120.66025,3985.05154 1121.48825,3984.56692 1122,3984.03938 C1121.18781,3984.17231 1120.01481,3984.03523 1119.39381,3983.786" id="Imported-Layers" sketch:type="MSShapeGroup"></path>
        </g>
    </g>
</svg>