<?xml version="1.0" encoding="UTF-8" standalone="no"?>
<svg width="18px" height="18px" viewBox="0 0 18 18" version="1.1" xmlns="http://www.w3.org/2000/svg" xmlns:xlink="http://www.w3.org/1999/xlink" xmlns:sketch="http://www.bohemiancoding.com/sketch/ns">
    <!-- Generator: Sketch 3.3.3 (12072) - http://www.bohemiancoding.com/sketch -->
    <title>icon-slack</title>
    <desc>Created with Sketch.</desc>
    <defs></defs>
    <g id="Page-1" stroke="none" stroke-width="1" fill="none" fill-rule="evenodd" sketch:type="MSPage">
        <g id="icon-slack" sketch:type="MSLayerGroup" transform="translate(-1.000000, 0.000000)" fill="#FBFBFB">
            <path d="M8.28571429,8.2958866 L9.05528571,10.5933152 L11.4421429,9.7938866 L10.6727143,7.49645803 L8.28571429,8.2958866" id="Fill-8" sketch:type="MSShapeGroup"></path>
            <path d="M15.0118277,10.5294286 L13.8543991,10.917 L14.255542,12.1145714 C14.4179705,12.5995714 14.156542,13.1244286 13.671542,13.2867143 C13.5661134,13.3221429 13.4586848,13.3374286 13.3536848,13.3345714 C12.9753991,13.3248571 12.626542,13.0822857 12.499542,12.7028571 L12.0983991,11.5051429 L9.71154197,12.3044286 L10.1126848,13.5021429 C10.2751134,13.987 10.0136848,14.5118571 9.52868483,14.6742857 C9.42325626,14.7095714 9.31597054,14.7248571 9.21082768,14.7221429 C8.83268483,14.7122857 8.48382768,14.4697143 8.35668483,14.0902857 L7.95554197,12.8925714 L6.79797054,13.2802857 C6.69239911,13.3155714 6.5851134,13.3308571 6.47997054,13.3281429 C6.10182768,13.3182857 5.75297054,13.0757143 5.62582768,12.6962857 C5.46339911,12.2112857 5.72497054,11.6865714 6.20982768,11.5241429 L7.36739911,11.1365714 L6.59782768,8.83914286 L5.44039911,9.22671429 C5.33497054,9.262 5.22754197,9.27728571 5.12239911,9.27457143 C4.74439911,9.26471429 4.39539911,9.02214286 4.26839911,8.64271429 C4.10597054,8.15771429 4.36739911,7.633 4.85239911,7.47057143 L6.00968483,7.083 L5.60854197,5.88528571 C5.4461134,5.40042857 5.70754197,4.87571429 6.19254197,4.71314286 C6.67754197,4.55085714 7.20225626,4.81228571 7.36454197,5.29714286 L7.76568483,6.49485714 L10.152542,5.69557143 L9.75139911,4.49785714 C9.58897054,4.01285714 9.85054197,3.48814286 10.3353991,3.32571429 C10.8202563,3.16328571 11.3451134,3.42485714 11.507542,3.90971429 L11.9086848,5.10742857 L13.0661134,4.71971429 C13.5512563,4.55742857 14.0758277,4.81885714 14.2382563,5.30371429 C14.4006848,5.78871429 14.1391134,6.31342857 13.6542563,6.47585714 L12.4968277,6.86342857 L13.2662563,9.161 L14.4238277,8.77328571 C14.9088277,8.611 15.433542,8.87242857 15.5958277,9.35728571 C15.7582563,9.84214286 15.4968277,10.367 15.0118277,10.5294286 L15.0118277,10.5294286 Z M18.116542,6.54457143 C16.2749705,0.406285714 13.6149705,-1.026 7.47668483,0.815571429 C1.33839911,2.65714286 -0.0938866014,5.31714286 1.74768483,11.4554286 C3.58925626,17.5937143 6.24925626,19.026 12.387542,17.1844286 C18.5258277,15.3428571 19.9581134,12.6828571 18.116542,6.54457143 L18.116542,6.54457143 Z" id="Fill-11" sketch:type="MSShapeGroup"></path>
        </g>
    </g>
</svg>