<?xml version="1.0" encoding="UTF-8" standalone="no"?>
<svg width="146px" height="33px" viewBox="0 0 146 33" version="1.1" xmlns="http://www.w3.org/2000/svg" xmlns:xlink="http://www.w3.org/1999/xlink" xmlns:sketch="http://www.bohemiancoding.com/sketch/ns">
    <!-- Generator: Sketch 3.1.1 (8761) - http://www.bohemiancoding.com/sketch -->
    <title>Group</title>
    <desc>Created with Sketch.</desc>
    <defs></defs>
    <g id="Page-1" stroke="none" stroke-width="1" fill="none" fill-rule="evenodd" sketch:type="MSPage">
        <g id="Devcenter-docs" sketch:type="MSArtboardGroup" transform="translate(-358.000000, -3910.000000)" fill="#FFFFFF">
            <g id="FOOTER" sketch:type="MSLayerGroup" transform="translate(265.000000, 3840.000000)">
                <g id="Group" transform="translate(89.000000, 70.000000)" sketch:type="MSShapeGroup">
                    <g transform="translate(4.000000, 0.000000)">
                        <path d="M42.7043478,26.1079104 L34.9541716,9.6318806 L37.8091187,9.6318806 L42.6929965,20.3184627 L48.1732315,8.89964179 L53.2867685,20.3184627 L58.5376733,9.6318806 L61.3924559,9.6318806 L53.2750881,26.1079104 L48.1732315,14.7462239 L42.7043478,26.1079104" id="Fill-1"></path>
                        <path d="M73.1659459,15.6616866 C72.4896357,13.0298955 70.7928555,11.6110597 68.6374148,11.6110597 C66.5165217,11.6110597 64.7394595,13.0298955 64.1776498,15.6616866 L73.1659459,15.6616866 L73.1659459,15.6616866 Z M64.0169213,17.7897761 C64.0169213,21.0505373 65.9660635,23.3615224 69.0271445,23.3615224 C70.999483,23.3615224 72.1917039,22.6980746 73.6591539,21.3595224 L75.4704348,22.8814627 C73.7850059,24.6204478 71.8932785,25.7421194 69.0271445,25.7421194 C64.4642303,25.7421194 61.1164042,22.3782537 61.1164042,17.5037761 C61.1164042,12.6292985 64.4527145,9.26576119 68.6374148,9.26576119 C72.9254289,9.26576119 75.9753231,12.5608358 76.1357227,17.7897761 L64.0169213,17.7897761 L64.0169213,17.7897761 Z" id="Fill-2"></path>
                        <path d="M78.5204935,9.6318806 L81.3178613,9.6318806 L81.3178613,12.0231493 C82.8312103,10.1352537 84.3791069,9.26576119 86.0525264,9.26576119 C86.9588249,9.26576119 87.646651,9.47147761 88.3571798,9.95219403 L87.0961927,12.286 C86.4768038,11.9543582 85.8355347,11.7942836 85.273396,11.7942836 C83.1177908,11.7942836 81.3178613,13.8537463 81.3178613,16.7485522 L81.3178613,25.3755075 L78.5204935,25.3755075 L78.5204935,9.6318806" id="Fill-3"></path>
                        <path d="M100.498848,13.2357761 C99.5012456,12.3091493 98.1714924,11.7942836 96.7609636,11.7942836 C93.7915159,11.7942836 91.3615041,14.3801045 91.3615041,17.5037761 C91.3615041,20.6271194 93.7915159,23.2132687 96.7609636,23.2132687 C98.4236898,23.2132687 99.9482256,22.4807015 100.980212,21.2339254 L103.009636,22.8121791 C101.507474,24.5976269 99.260235,25.7421194 96.7609636,25.7421194 C92.2325969,25.7421194 88.5517979,22.0572836 88.5517979,17.5037761 C88.5517979,12.9499403 92.2325969,9.26576119 96.7609636,9.26576119 C98.9741481,9.26576119 100.956522,10.1467463 102.436639,11.5995672 L100.498848,13.2357761" id="Fill-4"></path>
                        <path d="M105.226439,1.95913433 L108.011798,1.95913433 L108.011798,15.9706716 L114.500987,9.6318806 L118.15859,9.6318806 L110.544959,17.0690299 L118.548484,25.3755075 L114.93678,25.3755075 L108.011798,18.213194 L108.011798,25.3755075 L105.226439,25.3755075 L105.226439,1.95913433" id="Fill-5"></path>
                        <path d="M130.463455,15.6616866 C129.786816,13.0298955 128.090529,11.6110597 125.936075,11.6110597 C123.813866,11.6110597 122.037133,13.0298955 121.474665,15.6616866 L130.463455,15.6616866 L130.463455,15.6616866 Z M121.314924,17.7897761 C121.314924,21.0505373 123.263408,23.3615224 126.324489,23.3615224 C128.296005,23.3615224 129.490035,22.6980746 130.956827,21.3595224 L132.767944,22.8814627 C131.082021,24.6204478 129.190623,25.7421194 126.324489,25.7421194 C121.761904,25.7421194 118.414078,22.3782537 118.414078,17.5037761 C118.414078,12.6292985 121.749894,9.26576119 125.936075,9.26576119 C130.222609,9.26576119 133.271845,12.5608358 133.432244,17.7897761 L121.314924,17.7897761 L121.314924,17.7897761 Z" id="Fill-6"></path>
                        <path d="M136.145711,9.6318806 L138.943079,9.6318806 L138.943079,12.0231493 C140.457086,10.1352537 142.004982,9.26576119 143.678895,9.26576119 C144.584042,9.26576119 145.271704,9.47147761 145.982726,9.95219403 L144.721904,12.286 C144.102679,11.9543582 143.460588,11.7942836 142.898284,11.7942836 C140.742844,11.7942836 138.943079,13.8537463 138.943079,16.7485522 L138.943079,25.3755075 L136.145711,25.3755075 L136.145711,9.6318806" id="Fill-7"></path>
                        <path d="M12.8242303,0.0553283582 L0,7.31007463 L0,17.1204328 L2.37506463,17.1204328 L2.37506463,8.62252239 L12.8242303,2.662 L23.2750411,8.62252239 L23.2750411,19.3992388 C23.2750411,21.0449701 22.6617391,22.3779403 21.6027732,23.7568806 C19.0046298,27.1465224 14.3036898,29.686209 12.8262045,30.3918507 C11.3523384,29.6822687 7.03207991,27.4305522 4.27518214,24.2307015 L18.0488132,24.2307015 C19.046745,23.2699254 19.359483,22.9829403 20.18698,21.8609403 L0.330176263,21.8609403 C2.26089307,28.4643881 12.8220917,33 12.8220917,33 C12.8220917,33 23.3972738,28.5044478 25.3189424,21.8609403 C25.5303408,21.1260746 25.6496122,20.1910746 25.6496122,19.3992388 L25.6496122,7.31007463 L12.8242303,0.0553283582" id="Fill-8"></path>
                        <path d="M6.6719624,10.9857164 L18.9837368,10.9857164 L18.9837368,13.0335224 L6.6719624,13.0335224 L6.6719624,10.9857164 Z" id="Fill-9"></path>
                        <path d="M5.64293772,14.5694179 L20.00651,14.5694179 L20.00651,16.6170597 L5.64293772,16.6170597 L5.64293772,14.5694179 Z" id="Fill-10"></path>
                        <path d="M5.64293772,18.1532836 L20.00651,18.1532836 L20.00651,20.2012537 L5.64293772,20.2012537 L5.64293772,18.1532836 Z" id="Fill-11"></path>
                        <path d="M10.0033373,7.40201493 L15.646275,7.40201493 L15.646275,9.4498209 L10.0033373,9.4498209 L10.0033373,7.40201493 Z" id="Fill-12"></path>
                    </g>
                </g>
            </g>
        </g>
    </g>
</svg>