<?xml version="1.0" encoding="UTF-8" standalone="no"?>
<svg width="16px" height="16px" viewBox="0 0 16 16" version="1.1" xmlns="http://www.w3.org/2000/svg" xmlns:xlink="http://www.w3.org/1999/xlink" xmlns:sketch="http://www.bohemiancoding.com/sketch/ns">
    <!-- Generator: Sketch 3.1.1 (8761) - http://www.bohemiancoding.com/sketch -->
    <title>Fill 1</title>
    <desc>Created with Sketch.</desc>
    <defs></defs>
    <g id="Page-1" stroke="none" stroke-width="1" fill="none" fill-rule="evenodd" sketch:type="MSPage">
        <g id="Devcenter-docs" sketch:type="MSArtboardGroup" transform="translate(-1053.000000, -4001.000000)" fill="#FFFFFF">
            <path d="M1055.143,4012.713 C1053.961,4012.713 1053,4013.679 1053,4014.86 C1053,4016.044 1053.961,4017 1055.143,4017 C1056.328,4017 1057.289,4016.044 1057.289,4014.86 C1057.289,4013.679 1056.328,4012.713 1055.143,4012.713 Z M1053.141,4006.494 L1053.141,4009.305 C1055.141,4009.343 1057.018,4010.14 1058.436,4011.564 C1059.855,4012.985 1060.652,4014.868 1060.689,4016.88 L1063.51,4016.88 C1063.432,4011.188 1058.824,4006.571 1053.141,4006.494 Z M1053.145,4001 L1053.145,4003.81 C1060.299,4003.888 1066.105,4009.708 1066.183,4016.88 L1068.998,4016.88 C1068.92,4008.158 1061.851,4001.078 1053.145,4001 Z" id="Fill-1" sketch:type="MSShapeGroup"></path>
        </g>
    </g>
</svg>