<?xml version="1.0" encoding="UTF-8" standalone="no"?>
<svg width="18px" height="18px" viewBox="0 0 18 18" version="1.1" xmlns="http://www.w3.org/2000/svg" xmlns:xlink="http://www.w3.org/1999/xlink" xmlns:sketch="http://www.bohemiancoding.com/sketch/ns">
    <!-- Generator: Sketch 3.1.1 (8761) - http://www.bohemiancoding.com/sketch -->
    <title>Imported Layers</title>
    <desc>Created with Sketch.</desc>
    <defs></defs>
    <g id="Page-1" stroke="none" stroke-width="1" fill="none" fill-rule="evenodd" sketch:type="MSPage">
        <g id="Devcenter-docs" sketch:type="MSArtboardGroup" transform="translate(-1037.000000, -3960.000000)" fill="#FFFFFF">
            <path d="M1055,3963.00038 C1055,3961.42537 1053.57575,3960 1052.00075,3960 L1040.00038,3960 C1038.42425,3960 1037,3961.42537 1037,3963.00038 L1037,3975.00075 C1037,3976.57688 1038.42425,3978 1040.00038,3978 L1046,3978 L1046,3971.20163 L1043.80063,3971.20163 L1043.80063,3968.20125 L1046,3968.20125 L1046,3967.03125 C1046,3965.01638 1047.51425,3963.20062 1049.375,3963.20062 L1051.8005,3963.20062 L1051.8005,3966.201 L1049.375,3966.201 C1049.1095,3966.201 1048.80012,3966.52275 1048.80012,3967.0065 L1048.80012,3968.20125 L1051.8005,3968.20125 L1051.8005,3971.20163 L1048.80012,3971.20163 L1048.80012,3978 L1052.00075,3978 C1053.57575,3978 1055,3976.57688 1055,3975.00075 L1055,3963.00038" id="Imported-Layers" sketch:type="MSShapeGroup"></path>
        </g>
    </g>
</svg>