<?xml version="1.0" encoding="UTF-8" standalone="no"?>
<svg width="120px" height="32px" viewBox="0 0 120 32" version="1.1" xmlns="http://www.w3.org/2000/svg" xmlns:xlink="http://www.w3.org/1999/xlink" xmlns:sketch="http://www.bohemiancoding.com/sketch/ns">
    <g id="Group" class="logo-group" fill="red" sketch:type="MSLayerGroup">
        <path d="M34.7652027,23.3790448 L28.3989865,9.89865672 L30.7441216,9.89865672 L34.7558784,18.6422239 L39.2575,9.29955224 L43.4579054,18.6422239 L47.7711486,9.89865672 L50.1161486,9.89865672 L43.4483108,23.3790448 L39.2575,14.0831194 L34.7652027,23.3790448" id="Fill-1" fill="#1B2028" sketch:type="MSShapeGroup"></path>
        <path d="M59.7872297,14.8321343 C59.2316892,12.6788507 57.8379054,11.5179851 56.0673649,11.5179851 C54.3252027,11.5179851 52.865473,12.6788507 52.4039865,14.8321343 L59.7872297,14.8321343 L59.7872297,14.8321343 Z M52.2719595,16.5732985 C52.2719595,19.241194 53.8730405,21.132 56.3875,21.132 C58.0076351,21.132 58.9869595,20.5891791 60.1923649,19.494 L61.6802027,20.7392239 C60.2957432,22.1620299 58.7418243,23.0797612 56.3875,23.0797612 C52.6393919,23.0797612 49.8893919,20.3275075 49.8893919,16.3392985 C49.8893919,12.3510896 52.6299324,9.59910448 56.0673649,9.59910448 C59.5896622,9.59910448 62.0949324,12.2950746 62.2266892,16.5732985 L52.2719595,16.5732985 L52.2719595,16.5732985 Z" id="Fill-2" fill="#1B2028" sketch:type="MSShapeGroup"></path>
        <path d="M64.1856081,9.89865672 L66.4834459,9.89865672 L66.4834459,11.8551493 C67.7265541,10.3105075 68.9980405,9.59910448 70.3726351,9.59910448 C71.1170946,9.59910448 71.6820946,9.76741791 72.2657432,10.1607313 L71.2299324,12.070209 C70.7211486,11.7988657 70.1943919,11.6678955 69.7326351,11.6678955 C67.9619595,11.6678955 66.4834459,13.3529104 66.4834459,15.7213881 L66.4834459,22.779806 L64.1856081,22.779806 L64.1856081,9.89865672" id="Fill-3" fill="#1B2028" sketch:type="MSShapeGroup"></path>
        <path d="M82.2392568,12.8472985 C81.4197973,12.0891493 80.3275,11.6678955 79.1688514,11.6678955 C76.7296622,11.6678955 74.7335811,13.7835672 74.7335811,16.3392985 C74.7335811,18.8947612 76.7296622,21.0107015 79.1688514,21.0107015 C80.5346622,21.0107015 81.7869595,20.4113284 82.6346622,19.3912388 L84.3016892,20.6825373 C83.0677703,22.1433582 81.2218243,23.0797612 79.1688514,23.0797612 C75.4491216,23.0797612 72.4256081,20.0648955 72.4256081,16.3392985 C72.4256081,12.6134328 75.4491216,9.59910448 79.1688514,9.59910448 C80.9868243,9.59910448 82.6152027,10.3199104 83.8310135,11.5085821 L82.2392568,12.8472985" id="Fill-4" fill="#1B2028" sketch:type="MSShapeGroup"></path>
        <path d="M86.1226351,3.62095522 L88.4106081,3.62095522 L88.4106081,15.0849403 L93.7410135,9.89865672 L96.745473,9.89865672 L90.4914189,15.983597 L97.0657432,22.779806 L94.0989865,22.779806 L88.4106081,16.9197313 L88.4106081,22.779806 L86.1226351,22.779806 L86.1226351,3.62095522" id="Fill-5" fill="#1B2028" sketch:type="MSShapeGroup"></path>
        <path d="M106.853041,14.8321343 C106.29723,12.6788507 104.903851,11.5179851 103.134122,11.5179851 C101.390878,11.5179851 99.9314189,12.6788507 99.4693919,14.8321343 L106.853041,14.8321343 L106.853041,14.8321343 Z M99.3381757,16.5732985 C99.3381757,19.241194 100.938716,21.132 103.453176,21.132 C105.072635,21.132 106.053446,20.5891791 107.258311,19.494 L108.746014,20.7392239 C107.361149,22.1620299 105.8075,23.0797612 103.453176,23.0797612 C99.7053378,23.0797612 96.9553378,20.3275075 96.9553378,16.3392985 C96.9553378,12.3510896 99.695473,9.59910448 103.134122,9.59910448 C106.655203,9.59910448 109.159932,12.2950746 109.291689,16.5732985 L99.3381757,16.5732985 L99.3381757,16.5732985 Z" id="Fill-6" fill="#1B2028" sketch:type="MSShapeGroup"></path>
        <path d="M111.520608,9.89865672 L113.818446,9.89865672 L113.818446,11.8551493 C115.062095,10.3105075 116.333581,9.59910448 117.708581,9.59910448 C118.452095,9.59910448 119.016959,9.76741791 119.601014,10.1607313 L118.565338,12.070209 C118.056689,11.7988657 117.529257,11.6678955 117.067365,11.6678955 C115.296824,11.6678955 113.818446,13.3529104 113.818446,15.7213881 L113.818446,22.779806 L111.520608,22.779806 L111.520608,9.89865672" id="Fill-7" fill="#1B2028" sketch:type="MSShapeGroup"></path>
        <path d="M0,7.09869525 L0,16.6277464 L2.22231629,16.6277464 L2.22231629,8.37350924 L11.9994612,2.58390179 L21.7781455,8.37350924 L21.7781455,18.8412088 C21.7781455,20.4397497 21.204287,21.7344976 20.2134267,23.0738975 C17.7823786,26.366343 13.3837717,28.8332053 12.0013084,29.5186132 C10.6222316,28.829378 6.57982336,26.6422284 4.0002309,23.5341318 L16.8880337,23.5341318 C17.8217852,22.6009054 18.11441,22.3221495 18.8886879,21.2323223 L0.308941525,21.2323223 C2.11548748,27.6464195 11.9974601,32.0519751 11.9974601,32.0519751 C11.9974601,32.0519751 21.892517,27.6853306 23.6905967,21.2323223 C23.8883993,20.5185285 24,19.6103391 24,18.8412088 L24,7.09869525 L11.9994612,0.0519751244 L0,7.09869525 L0,7.09869525 Z" id="Fill-8" fill="#000000" sketch:type="MSShapeGroup"></path>
        <path d="M6.19539365,10.3199154 L17.6277556,10.3199154 L17.6277556,12.2436119 L6.19539365,12.2436119 L6.19539365,10.3199154 L6.19539365,10.3199154 Z" id="Fill-9" fill="#000000" sketch:type="MSShapeGroup"></path>
        <path d="M5.23987074,13.6864229 L18.5774736,13.6864229 L18.5774736,15.6099652 L5.23987074,15.6099652 L5.23987074,13.6864229 L5.23987074,13.6864229 Z" id="Fill-10" fill="#000000" sketch:type="MSShapeGroup"></path>
        <path d="M5,17 L18.3376028,17 L18.3376028,18.9238507 L5,18.9238507 L5,17 L5,17 Z" id="Fill-11" fill="#000000" sketch:type="MSShapeGroup"></path>
        <path d="M9.28881316,6.95340796 L14.5286839,6.95340796 L14.5286839,8.87710448 L9.28881316,8.87710448 L9.28881316,6.95340796 L9.28881316,6.95340796 Z" id="Fill-12" fill="#000000" sketch:type="MSShapeGroup"></path>
    </g>
</svg>
