<?xml version="1.0" encoding="UTF-8" standalone="no"?>
<svg width="14px" height="14px" viewBox="0 0 14 14" version="1.1" xmlns="http://www.w3.org/2000/svg" xmlns:xlink="http://www.w3.org/1999/xlink" xmlns:sketch="http://www.bohemiancoding.com/sketch/ns">
    <!-- Generator: Sketch 3.1.1 (8761) - http://www.bohemiancoding.com/sketch -->
    <title>Imported Layers</title>
    <desc>Created with Sketch.</desc>
    <defs></defs>
    <g id="Page-1" stroke="none" stroke-width="1" fill="none" fill-rule="evenodd" sketch:type="MSPage">
        <g id="Devcenter-docs" sketch:type="MSArtboardGroup" transform="translate(-288.000000, -404.000000)" fill="#424E61">
            <g id="Filter" sketch:type="MSLayerGroup" transform="translate(286.000000, 397.000000)">
                <path d="M14.276775,15.7623166 C16.327425,13.761341 16.304325,10.4839752 14.253325,8.48299955 C12.203375,6.48304833 8.901825,6.51719467 6.851525,8.51714589 C5.016825,10.3074386 4.870525,13.1398776 6.312875,15.1353898 L2.300825,19.0499264 C1.899725,19.4412435 1.899725,20.0760239 2.300825,20.4676825 C2.702625,20.859341 3.352925,20.859341 3.754025,20.4676825 L7.803175,16.5176337 C9.632275,17.5689996 12.509275,17.4863654 14.276775,15.7623166 L14.276775,15.7623166 Z M7.790225,14.7437313 C6.289075,13.2791947 6.289775,10.8974874 7.790225,9.43295077 C9.291025,7.96841419 11.732975,7.96807272 13.233775,9.43260931 C14.734575,10.8971459 14.734575,13.2798776 13.233775,14.7440727 C11.732975,16.2079264 9.291025,16.2079264 7.790225,14.7437313 L7.790225,14.7437313 Z" id="Imported-Layers" sketch:type="MSShapeGroup"></path>
            </g>
        </g>
    </g>
</svg>